<?xml version="1.0" standalone="no"?>
<!DOCTYPE svg PUBLIC "-//W3C//DTD SVG 1.1//EN" "http://www.w3.org/Graphics/SVG/1.1/DTD/svg11.dtd" >
<svg xmlns="http://www.w3.org/2000/svg">
<metadata>Generated by IcoMoon</metadata>
<defs>
<font id="lineaX" horiz-adv-x="1024">
<font-face units-per-em="1024" ascent="960" descent="-64" />
<missing-glyph horiz-adv-x="1024" />
<glyph unicode="&#x20;" horiz-adv-x="512" d="" />
<glyph unicode="&#xe900;" glyph-name="add-filled" d="M512 925.867c-126.265-1.523-246.929-52.359-336.218-141.649s-140.125-209.953-141.649-336.218c1.523-126.265 52.359-246.927 141.649-336.22 89.289-89.286 209.953-140.124 336.218-141.647 126.265 1.522 246.927 52.361 336.22 141.647 89.286 89.293 140.124 209.955 141.647 336.22-1.522 126.265-52.361 246.929-141.647 336.218-89.293 89.289-209.955 140.125-336.22 141.649zM785.067 413.867h-238.933v-238.933h-68.267v238.933h-238.933v68.267h238.933v238.933h68.267v-238.933h238.933v-68.267z" />
<glyph unicode="&#xe901;" glyph-name="archive-box" d="M23.273 779.636c0 48.199 39.074 87.273 87.273 87.273h802.909c48.198 0 87.273-39.073 87.273-87.273v-69.818c0-42.895-30.948-78.562-71.731-85.893l-27.257-463.4c-4.343-73.807-65.462-131.435-139.394-131.435h-500.688c-73.934 0-135.054 57.628-139.396 131.435l-27.258 463.4c-40.785 7.331-71.73 42.998-71.73 85.893v69.818zM128.307 692.364h767.386c0.182 0.001 0.368 0.001 0.549 0h17.213c9.64 0 17.455 7.815 17.455 17.455v69.818c0 9.64-7.815 17.455-17.455 17.455h-802.909c-9.64 0-17.455-7.815-17.455-17.455v-69.818c0-9.64 7.815-17.455 17.455-17.455h17.212c0.183 0.001 0.366 0.001 0.549 0zM165.023 622.545l26.936-457.919c2.171-36.901 32.731-65.718 69.698-65.718h500.688c36.966 0 67.523 28.816 69.697 65.718l26.936 457.919h-693.955zM383.989 482.909c0-19.28 15.629-34.909 34.909-34.909h186.184c19.279 0 34.909 15.629 34.909 34.909s-15.63 34.909-34.909 34.909h-186.184c-19.28 0-34.909-15.629-34.909-34.909z" />
<glyph unicode="&#xe902;" glyph-name="archive-box2" d="M71.226 747.097c0 43.47 35.239 78.709 78.71 78.709h724.129c43.47 0 78.709-35.239 78.709-78.709v-62.968c0-38.686-27.909-70.854-64.692-77.466l-24.584-417.931c-3.916-66.565-59.039-118.54-125.717-118.54h-451.561c-66.679 0-121.802 51.976-125.717 118.54l-24.584 417.931c-36.782 6.611-64.692 38.78-64.692 77.466v62.968zM165.954 668.386h692.092c0.165 0.002 0.33 0.002 0.495 0h15.524c8.694 0 15.742 7.049 15.742 15.743v62.968c0 8.694-7.047 15.742-15.742 15.742h-724.129c-8.694 0-15.742-7.047-15.742-15.742v-62.968c0-8.694 7.048-15.743 15.742-15.743h15.523c0.165 0.002 0.33 0.002 0.495 0zM199.067 605.419l24.294-412.987c1.959-33.282 29.519-59.27 62.859-59.27h451.561c33.339 0 60.9 25.988 62.859 59.27l24.294 412.987h-625.865zM396.549 479.483c0-17.387 14.097-31.483 31.483-31.483h167.915c17.388 0 31.485 14.097 31.485 31.483 0 17.388-14.097 31.485-31.485 31.485h-167.915c-17.387 0-31.483-14.097-31.483-31.485z" />
<glyph unicode="&#xe903;" glyph-name="arrow-down" d="M542.17 204.497c-16.662-16.662-43.678-16.662-60.34 0l-426.667 426.667c-16.662 16.662-16.662 43.678 0 60.34s43.678 16.662 60.34 0l396.497-396.497 396.498 396.497c16.663 16.662 43.674 16.662 60.336 0s16.663-43.678 0-60.34l-426.665-426.667z" />
<glyph unicode="&#xe904;" glyph-name="arrow-path" d="M66.894 567.262c65.867 245.821 318.541 391.702 564.361 325.835 81.019-21.709 151.281-63.773 206.633-119.227 0.005-0.005 0 0.004 0 0l97.311-97.309v162.824c0 21.208 17.193 38.4 38.4 38.4s38.4-17.192 38.4-38.4v-255.621c0-21.208-17.193-38.4-38.4-38.4h-255.621c-21.207 0-38.4 17.192-38.4 38.4s17.193 38.4 38.4 38.4h163.005l-97.413 97.412c-46.070 46.159-104.556 81.215-172.191 99.338-204.851 54.889-415.412-66.678-470.302-271.529-5.489-20.485-26.545-32.642-47.030-27.153s-32.642 26.545-27.153 47.030zM929.94 375.767c20.485-5.494 32.64-26.547 27.151-47.032-65.869-245.821-318.541-391.7-564.363-325.837-81.017 21.709-151.274 63.77-206.629 119.224l-97.3 97.362v-162.872c0-21.207-17.192-38.4-38.4-38.4s-38.4 17.193-38.4 38.4v255.621c0 21.207 17.192 38.4 38.4 38.4h255.623c21.208 0 38.4-17.193 38.4-38.4s-17.192-38.4-38.4-38.4h-162.96l97.36-97.423c46.072-46.157 104.549-81.203 172.183-99.328 204.851-54.886 415.411 66.678 470.302 271.529 5.489 20.485 26.547 32.645 47.032 27.156z" />
<glyph unicode="&#xe905;" glyph-name="arrow-right-circle" d="M512 870.4c-233.285 0-422.4-189.115-422.4-422.4 0-233.283 189.115-422.4 422.4-422.4 233.283 0 422.4 189.117 422.4 422.4 0 233.285-189.117 422.4-422.4 422.4zM12.8 448c0 275.701 223.499 499.2 499.2 499.2s499.2-223.499 499.2-499.2c0-275.702-223.498-499.2-499.2-499.2s-499.2 223.498-499.2 499.2zM523.249 628.753c14.996 14.996 39.306 14.996 54.303 0l153.6-153.6c7.204-7.201 11.249-16.969 11.249-27.153s-4.045-19.953-11.249-27.151l-153.6-153.6c-14.996-14.996-39.306-14.996-54.303 0-14.998 14.996-14.998 39.306 0 54.303l88.044 88.049h-291.292c-21.208 0-38.4 17.193-38.4 38.4s17.192 38.4 38.4 38.4h291.292l-88.044 88.047c-14.998 14.996-14.998 39.31 0 54.306z" />
<glyph unicode="&#xe906;" glyph-name="arrow-small-down" d="M512 917.333c23.564 0 42.667-19.103 42.667-42.667v-750.325l311.165 311.161c16.663 16.662 43.674 16.662 60.336 0s16.663-43.678 0-60.338l-383.998-384c-16.662-16.663-43.678-16.663-60.34 0l-384 384c-16.662 16.66-16.662 43.676 0 60.338s43.678 16.662 60.34 0l311.163-311.161v750.325c0 23.564 19.103 42.667 42.667 42.667z" />
<glyph unicode="&#xe907;" glyph-name="arrow-small-left" d="M499.503 862.17c16.662-16.662 16.662-43.678 0-60.34l-311.163-311.163h750.327c23.563 0 42.667-19.103 42.667-42.667s-19.103-42.667-42.667-42.667h-750.327l311.163-311.165c16.662-16.663 16.662-43.674 0-60.336s-43.678-16.663-60.34 0l-384 383.998c-16.662 16.662-16.662 43.678 0 60.34l384 384c16.662 16.662 43.678 16.662 60.34 0z" />
<glyph unicode="&#xe908;" glyph-name="arrow-up-right" d="M298.667 917.333h640c11.315 0 22.17-4.495 30.168-12.497 8.004-8.001 12.498-18.854 12.498-30.17v-640c0-23.563-19.103-42.667-42.667-42.667s-42.667 19.103-42.667 42.667v536.994l-780.497-780.495c-16.662-16.663-43.678-16.663-60.34 0s-16.662 43.674 0 60.336l780.495 780.498h-536.991c-23.564 0-42.667 19.103-42.667 42.667s19.103 42.667 42.667 42.667z" />
<glyph unicode="&#xe909;" glyph-name="bars-3-center-left" d="M0 746.667c0 23.564 19.102 42.667 42.667 42.667h938.667c23.563 0 42.667-19.102 42.667-42.667s-19.103-42.667-42.667-42.667h-938.667c-23.564 0-42.667 19.103-42.667 42.667zM0 448c0 23.564 19.102 42.667 42.667 42.667h469.333c23.564 0 42.667-19.103 42.667-42.667s-19.103-42.667-42.667-42.667h-469.333c-23.564 0-42.667 19.103-42.667 42.667zM0 149.333c0 23.563 19.102 42.667 42.667 42.667h938.667c23.563 0 42.667-19.103 42.667-42.667s-19.103-42.667-42.667-42.667h-938.667c-23.564 0-42.667 19.103-42.667 42.667z" />
<glyph unicode="&#xe90a;" glyph-name="book-open" d="M89.6 841.71c36.584 10.345 75.217 15.89 115.2 15.89 102.145 0 195.75-36.212 268.8-96.548v-634.736c-77.591 49.669-169.858 78.484-268.8 78.484-39.617 0-78.192-4.623-115.2-13.368v650.278zM550.4 761.052c73.052 60.337 166.656 96.548 268.8 96.548 39.982 0 78.618-5.544 115.2-15.89v-650.278c-37.007 8.745-75.581 13.368-115.2 13.368-98.944 0-191.206-28.815-268.8-78.484v634.736zM512 828.708c-84.696 66.203-191.374 105.692-307.2 105.692-58.277 0-114.301-10.002-166.397-28.415-15.344-5.423-25.603-19.93-25.603-36.205v-729.599c0-12.467 6.051-24.156 16.228-31.355 10.178-7.194 23.216-9.006 34.968-4.849 43.99 15.544 91.365 24.023 140.804 24.023 108.209 0 206.835-40.637 281.59-107.546 14.58-13.051 36.638-13.051 51.22 0 74.757 66.908 173.379 107.546 281.59 107.546 49.439 0 96.814-8.479 140.805-24.023 11.75-4.157 24.791-2.345 34.964 4.849 10.179 7.199 16.23 18.888 16.23 31.355v729.599c0 16.275-10.26 30.782-25.605 36.205-52.096 18.413-108.119 28.415-166.395 28.415-115.825 0-222.505-39.488-307.2-105.692z" />
<glyph unicode="&#xe90b;" glyph-name="check" d="M1003.998 721.069l-628.533-628.533-355.465 355.467 48.265 48.265 307.2-307.2 580.269 580.267 48.265-48.265z" />
<glyph unicode="&#xe90c;" glyph-name="check-circle" d="M512 870.4c-233.285 0-422.4-189.115-422.4-422.4 0-233.283 189.115-422.4 422.4-422.4 233.283 0 422.4 189.117 422.4 422.4 0 233.285-189.117 422.4-422.4 422.4zM12.8 448c0 275.701 223.499 499.2 499.2 499.2s499.2-223.499 499.2-499.2c0-275.702-223.498-499.2-499.2-499.2s-499.2 223.498-499.2 499.2zM687.918 594.447c17.26-12.327 21.258-36.31 8.929-53.567l-192-268.798c-6.561-9.185-16.831-15.022-28.080-15.949-11.249-0.932-22.339 3.133-30.32 11.116l-115.2 115.2c-14.996 14.996-14.996 39.306 0 54.303 14.996 14.998 39.31 14.998 54.306 0l83.147-83.144 165.652 231.912c12.329 17.257 36.311 21.255 53.565 8.928z" />
<glyph unicode="&#xe90d;" glyph-name="chevron-down" d="M534.627 185.373c-12.497-12.497-32.758-12.497-45.254 0l-480 480c-12.497 12.497-12.497 32.758 0 45.255s32.758 12.497 45.255 0l457.373-457.372 457.37 457.372c12.499 12.497 32.762 12.497 45.261 0 12.493-12.497 12.493-32.758 0-45.255l-480.003-480z" />
<glyph unicode="&#xe90e;" glyph-name="chevron-left" d="M268.497 417.83c-16.662 16.662-16.662 43.678 0 60.34l426.667 426.667c16.662 16.662 43.678 16.662 60.34 0s16.662-43.678 0-60.34l-396.497-396.497 396.497-396.498c16.662-16.663 16.662-43.674 0-60.336s-43.678-16.663-60.34 0l-426.667 426.665z" />
<glyph unicode="&#xe90f;" glyph-name="chevron-right" d="M755.503 478.17c16.662-16.662 16.662-43.678 0-60.34l-426.667-426.665c-16.662-16.663-43.678-16.663-60.34 0s-16.662 43.674 0 60.336l396.497 396.498-396.497 396.497c-16.662 16.662-16.662 43.678 0 60.34s43.678 16.662 60.34 0l426.667-426.667z" />
<glyph unicode="&#xe910;" glyph-name="cube-transparent" horiz-adv-x="931" d="M447.865 931.972c10.869 6.34 24.311 6.34 35.179 0l104.727-61.091c16.654-9.715 22.277-31.090 12.563-47.743s-31.088-22.279-47.742-12.564l-87.138 50.83-87.138-50.83c-16.653-9.715-38.029-4.089-47.743 12.564s-4.089 38.029 12.564 47.743l104.727 61.091zM181.426 736.135c9.715-16.653 4.089-38.029-12.564-47.743l-53.035-30.937 53.035-30.937c16.653-9.715 22.279-31.090 12.564-47.743s-31.090-22.279-47.743-12.564l-52.229 30.466v-43.949c0-19.28-15.629-34.909-34.909-34.909s-34.909 15.629-34.909 34.909v104.727c0 12.416 6.595 23.898 17.319 30.154l104.727 61.091c16.653 9.715 38.029 4.089 47.743-12.564zM749.484 736.135c9.714 16.653 31.088 22.279 47.742 12.564l104.727-61.091c10.724-6.256 17.32-17.738 17.32-30.154v-104.727c0-19.28-15.63-34.909-34.909-34.909s-34.909 15.629-34.909 34.909v43.949l-52.229-30.466c-16.654-9.715-38.028-4.089-47.742 12.564s-4.091 38.029 12.563 47.743l53.034 30.937-53.034 30.937c-16.654 9.715-22.277 31.090-12.563 47.743zM330.574 491.771c9.715 16.653 31.090 22.279 47.743 12.564l87.138-50.829 87.138 50.829c16.654 9.715 38.028 4.089 47.742-12.564s4.091-38.028-12.563-47.742l-87.408-50.991v-84.675c0-19.279-15.63-34.909-34.909-34.909s-34.909 15.63-34.909 34.909v84.675l-87.408 50.991c-16.653 9.714-22.279 31.088-12.564 47.742zM46.545 378.182c19.28 0 34.909-15.63 34.909-34.909v-84.675l87.408-50.991c16.653-9.714 22.279-31.088 12.564-47.742s-31.090-22.277-47.743-12.563l-104.727 61.091c-10.725 6.256-17.319 17.734-17.319 30.152v104.727c0 19.279 15.629 34.909 34.909 34.909zM884.364 378.182c19.279 0 34.909-15.63 34.909-34.909v-104.727c0-12.418-6.595-23.896-17.32-30.152l-104.727-61.091c-16.654-9.714-38.028-4.091-47.742 12.563s-4.091 38.028 12.563 47.742l87.408 50.991v84.675c0 19.279 15.63 34.909 34.909 34.909zM465.455 133.818c19.279 0 34.909-15.63 34.909-34.909v-43.948l52.229 30.464c16.654 9.714 38.028 4.091 47.742-12.563s4.091-38.028-12.563-47.742l-104.727-61.091c-10.868-6.344-24.31-6.344-35.179 0l-104.727 61.091c-16.653 9.714-22.279 31.088-12.564 47.742s31.090 22.277 47.743 12.563l52.229-30.464v43.948c0 19.279 15.629 34.909 34.909 34.909z" />
<glyph unicode="&#xe911;" glyph-name="deposit" d="M261.788 542.386c25.033 25.033 58.985 39.096 94.386 39.096s69.353-14.063 94.386-39.096c25.035-25.033 39.095-58.985 39.095-94.386s-14.060-69.353-39.095-94.386c-12.395-12.395-27.11-22.227-43.305-28.935s-33.552-10.161-51.082-10.161c-17.529 0-34.886 3.453-51.082 10.161s-30.91 16.54-43.305 28.935c-12.395 12.395-22.227 27.11-28.935 43.305s-10.161 33.552-10.161 51.082c0 17.529 3.453 34.887 10.161 51.082s16.54 30.91 28.935 43.305zM712.348 715.13v-534.261h-712.348v534.261h712.348zM89.043 358.957c23.597 0 46.303-9.35 62.776-26.268 16.918-16.473 26.268-39.179 26.268-62.776h356.174c0 23.597 9.35 46.303 26.268 62.776 16.473 16.918 39.179 26.268 62.776 26.268v178.087c-23.597 0-46.303 9.35-62.776 26.268-16.918 16.473-26.268 39.179-26.268 62.776h-356.174c0-23.597-9.35-46.303-26.268-62.776-16.473-16.918-39.179-26.268-62.776-26.268v-178.087zM801.391 626.087h89.043c24.487 0 44.522 20.035 44.522 44.522s-20.035 44.522-44.522 44.522h-89.043v-89.043zM801.391 403.478h133.565c24.487 0 44.522 20.035 44.522 44.522s-20.035 44.522-44.522 44.522h-133.565v-89.043zM801.391 180.87h178.087c24.576 0 44.522 20.035 44.522 44.522s-19.946 44.522-44.522 44.522h-178.087v-89.043z" />
<glyph unicode="&#xe912;" glyph-name="discord" d="M850.39 781.729c-61.905 28.858-128.931 49.804-198.749 61.906-0.61 0.020-1.219-0.095-1.783-0.337s-1.066-0.603-1.475-1.060c-8.378-15.36-18.153-35.375-24.669-50.735-74.054 11.171-149.364 11.171-223.417 0-6.516 15.826-16.291 35.375-25.135 50.735-0.465 0.931-1.862 1.396-3.258 1.396-69.818-12.102-136.378-33.047-198.749-61.906-0.465 0-0.931-0.465-1.396-0.931-126.604-189.44-161.513-373.76-144.291-556.216 0-0.931 0.465-1.862 1.396-2.327 83.782-61.44 164.306-98.676 243.898-123.345 1.396-0.465 2.793 0 3.258 0.931 18.618 25.6 35.375 52.596 49.804 80.989 0.931 1.862 0 3.724-1.862 4.189-26.531 10.24-51.665 22.342-76.335 36.305-1.862 0.931-1.862 3.724-0.465 5.12 5.12 3.724 10.24 7.913 15.36 11.636 0.931 0.931 2.327 0.931 3.258 0.465 160.116-73.076 332.799-73.076 491.054 0 0.931 0.465 2.327 0.465 3.258-0.465 5.12-4.189 10.24-7.913 15.36-12.102 1.862-1.396 1.862-4.189-0.465-5.12-24.204-14.429-49.804-26.065-76.335-36.305-1.862-0.465-2.327-2.793-1.862-4.189 14.895-28.393 31.651-55.389 49.804-80.989 1.396-0.465 2.793-0.931 4.189-0.465 80.058 24.669 160.582 61.905 244.364 123.345 0.931 0.465 1.396 1.396 1.396 2.327 20.48 210.849-33.978 393.772-144.291 556.216-0.465 0.465-0.931 0.931-1.862 0.931zM350.027 335.825c-47.942 0-87.971 44.216-87.971 98.674s39.098 98.676 87.971 98.676c49.338 0 88.436-44.684 87.971-98.676 0-54.458-39.098-98.674-87.971-98.674zM674.448 335.825c-47.942 0-87.971 44.216-87.971 98.674s39.098 98.676 87.971 98.676c49.338 0 88.436-44.684 87.971-98.676 0-54.458-38.633-98.674-87.971-98.674z" />
<glyph unicode="&#xe913;" glyph-name="duplicate" horiz-adv-x="838" d="M296.727 866.909c-9.64 0-17.455-7.815-17.455-17.455v-593.455c0-9.64 7.815-17.455 17.455-17.455h453.818c9.64 0 17.455 7.815 17.455 17.455v209.455c0 67.479-54.705 122.182-122.182 122.182h-69.818c-48.198 0-87.273 39.074-87.273 87.273v69.818c0 67.479-54.703 122.182-122.182 122.182h-69.818zM535.594 835.837c14.639-27.109 22.952-58.139 22.952-91.11v-69.818c0-9.64 7.815-17.455 17.455-17.455h69.818c32.963 0 63.991-8.307 91.094-22.943-38.796 90.184-111.141 162.539-201.318 201.326zM837.818 256c0-48.198-39.075-87.273-87.273-87.273h-122.182v-122.182c0-48.198-39.075-87.273-87.273-87.273h-453.818c-48.199 0-87.273 39.075-87.273 87.273v593.455c0 48.199 39.073 87.273 87.273 87.273h87.273c11.741 0 23.383-0.446 34.909-1.324v123.506c0 48.199 39.074 87.273 87.273 87.273h87.273c25.731 0 50.988-2.145 75.594-6.273 214.659-36.013 378.224-222.644 378.224-447.545v-226.909zM209.455 655.892c-11.491 1.034-23.134 1.563-34.909 1.563h-87.273c-9.64 0-17.455-7.815-17.455-17.455v-593.455c0-9.64 7.815-17.455 17.455-17.455h453.818c9.64 0 17.455 7.815 17.455 17.455v122.182h-261.818c-48.199 0-87.273 39.075-87.273 87.273v399.892z" />
<glyph unicode="&#xe914;" glyph-name="earnings" d="M721.473 448c128.465 0 232.727 104.262 232.727 232.727s-104.262 232.727-232.727 232.727c-128.465 0-232.727-104.262-232.727-232.727s104.262-232.727 232.727-232.727zM975.146 187.345c-18.153 18.618-40.96 27.927-67.491 27.927h-325.818l-96.815 33.978 15.36 43.753 81.455-31.185h130.327c16.291 0 29.324 6.516 40.029 17.222s15.825 23.738 15.825 38.167c0 25.135-12.102 42.356-36.305 52.131l-338.387 125.207h-90.764v-418.909l325.82-93.091 373.76 139.636c0.465 24.669-8.844 46.545-26.996 65.164zM209.472 494.545h-186.926v-512h186.926v512z" />
<glyph unicode="&#xe915;" glyph-name="efficient" d="M1018.665 608c0.008-68.457-20.247-135.383-58.209-192.346-37.965-56.965-91.937-101.42-155.123-127.762v0.108c0 120.23-47.762 235.538-132.777 320.556-85.018 85.015-200.325 132.778-320.556 132.778h-0.108c30.871 73.934 86.39 134.898 157.12 172.53 70.733 37.632 152.312 49.611 230.879 33.901 78.564-15.71 149.263-58.141 200.084-120.080s78.625-139.564 78.689-219.685zM245.333 928c-56.579 0-110.842-22.476-150.849-62.484s-62.484-94.27-62.484-150.85v-79.999h106.667v79.999c0 28.29 11.238 55.421 31.242 75.425s47.135 31.242 75.425 31.242h80v106.666h-80zM885.332 261.332v-80c0-28.288-11.238-55.421-31.242-75.425s-47.135-31.24-75.425-31.24h-80v-106.668h80c56.581 0 110.843 22.477 150.851 62.484s62.484 94.269 62.484 150.848v80h-106.668zM352-58.668c91.942 0 180.116 36.524 245.13 101.537 65.011 65.011 101.535 153.188 101.535 245.13s-36.524 180.116-101.535 245.13c-65.014 65.014-153.188 101.537-245.13 101.537s-180.118-36.524-245.131-101.537c-65.012-65.014-101.536-153.188-101.536-245.13s36.524-180.119 101.536-245.13c65.013-65.014 153.189-101.537 245.131-101.537zM352 421.332l133.332-133.332-133.332-133.332-133.334 133.332 133.334 133.332z" />
<glyph unicode="&#xe916;" glyph-name="ellipse" d="M997.053 448c0-267.889-217.163-485.053-485.053-485.053-267.887 0-485.053 217.163-485.053 485.053 0 267.887 217.166 485.053 485.053 485.053 267.889 0 485.053-217.166 485.053-485.053z" />
<glyph unicode="&#xe917;" glyph-name="eye" d="M511.893 757.334c-40.115 0.108-80.004-6.008-118.244-18.131-16.847-5.341-34.833 3.987-40.174 20.834s3.987 34.833 20.834 40.174c44.536 14.118 90.993 21.244 137.713 21.123 0.015 0 0.029 0 0.043 0l-0.086-32v32c0.015 0 0.029 0 0.044 0 192.586-0.017 322.294-115.407 397.578-213.181l0.019-0.023c0.486-0.634 0.973-1.267 1.459-1.898 16.979-22.088 32.621-42.431 43.238-66.454 11.392-25.786 16.326-53.881 16.326-91.777 0-37.914-4.934-66.020-16.326-91.809-10.624-24.040-26.278-44.383-43.27-66.467l-1.434-1.864-0.013-0.012c-75.29-97.782-205.011-213.181-397.621-213.181s-322.333 115.398-397.621 213.181h-0.001c-0.436 0.567-0.872 1.132-1.306 1.697-17.055 22.144-32.758 42.535-43.411 66.652-11.393 25.795-16.328 53.909-16.328 91.804 0 37.914 4.934 66.020 16.33 91.809 10.623 24.040 26.278 44.383 43.271 66.467 0.477 0.62 0.956 1.242 1.435 1.865l25.363-19.511-25.411 19.448c23.263 30.397 49.17 58.676 77.416 84.508 13.042 11.926 33.283 11.023 45.21-2.019s11.023-33.283-2.019-45.21c-25.462-23.285-48.814-48.776-69.784-76.175l-0.047-0.063c-18.722-24.338-29.683-38.859-36.895-55.178-6.737-15.246-10.869-33.881-10.869-65.94 0-32.036 4.132-50.685 10.872-65.946 7.21-16.324 18.174-30.861 36.884-55.162 69.522-90.293 182.657-188.225 346.911-188.225 164.258 0 277.391 97.932 346.914 188.225-0.006-0.004-0.006-0.008-0.013-0.012l0.013 0.012c18.714 24.332 29.67 38.85 36.883 55.167 6.739 15.245 10.867 33.881 10.867 65.94 0 32.035-4.128 50.66-10.867 65.908-7.213 16.323-18.176 30.854-36.896 55.212 0.006-0.004 0.006-0.009 0.013-0.014l-0.019 0.023c0-0.003 0.006-0.006 0.006-0.009-69.523 90.289-182.656 188.212-346.901 188.212h-0.086zM511.979 544.001c-25.46 0-49.878-10.115-67.882-28.118s-28.118-42.422-28.118-67.882c0-25.461 10.115-49.879 28.118-67.882s42.422-28.118 67.882-28.118c25.461 0 49.879 10.114 67.883 28.118s28.117 42.421 28.117 67.882c0 25.46-10.114 49.878-28.117 67.882s-42.422 28.118-67.883 28.118zM398.842 561.138c30.006 30.006 70.702 46.863 113.137 46.863s83.132-16.857 113.137-46.863c30.007-30.006 46.865-70.702 46.865-113.137s-16.858-83.132-46.865-113.137c-30.006-30.006-70.702-46.863-113.137-46.863s-83.131 16.857-113.137 46.863c-30.006 30.006-46.863 70.703-46.863 113.137s16.858 83.131 46.863 113.137z" />
<glyph unicode="&#xe918;" glyph-name="funnel" d="M91.727 911.962c136.659 23.175 277.074 35.238 420.278 35.238 143.196 0 283.612-12.063 420.27-35.237 46.198-7.835 78.925-48.053 78.925-93.993v-53.453c0-40.737-16.184-79.806-44.989-108.612l-278.118-278.116c-14.403-14.403-22.492-33.94-22.492-54.308v-149.883c0-58.179-32.87-111.365-84.91-137.385l-166.717-83.359c-11.903-5.955-26.040-5.315-37.361 1.679-11.321 6.999-18.212 19.359-18.212 32.666v336.282c0 20.367-8.091 39.905-22.494 54.308l-278.117 278.116c-28.806 28.806-44.988 67.874-44.988 108.612v53.452c0 45.94 32.725 86.158 78.927 93.993zM512.005 870.4c-138.884 0-275.004-11.699-407.438-34.157-8.363-1.418-14.967-8.869-14.967-18.274v-53.452c0-20.368 8.092-39.903 22.494-54.306l278.117-278.119c28.806-28.805 44.988-67.871 44.988-108.611v-274.15l111.145 55.572c26.020 13.010 42.455 39.603 42.455 68.695v149.883c0 40.74 16.184 79.805 44.989 108.611l278.118 278.119c14.403 14.403 22.492 33.937 22.492 54.306v53.453c0 9.404-6.605 16.856-14.966 18.274-132.434 22.457-268.549 34.156-407.429 34.156z" />
<glyph unicode="&#xe919;" glyph-name="gas" d="M124.371 38.4v731.43c0 38.798 15.412 76.006 42.846 103.44s64.642 42.846 103.439 42.846h292.571c38.797 0 76.006-15.412 103.439-42.846s42.846-64.642 42.846-103.44v-526.629c0-23.276 9.247-45.606 25.708-62.063s38.783-25.71 62.065-25.71c23.281 0 45.605 9.253 62.062 25.71 16.464 16.457 25.71 38.788 25.71 62.063v253.542c0 18.992-6.159 37.47-17.554 52.663l-64.366 85.84c-4.659 6.208-6.656 14.011-5.559 21.692s5.2 14.612 11.41 19.268c6.21 4.656 14.007 6.655 21.694 5.557 7.68-1.097 14.607-5.201 19.266-11.409l64.366-85.84c19.017-25.278 29.257-56.115 29.257-87.771v-253.542c0-27.167-7.563-53.798-21.848-76.904-14.285-23.113-34.721-41.787-59.019-53.936s-51.5-17.298-78.555-14.855c-27.058 2.443-52.902 12.368-74.636 28.665v-87.771h29.257c7.76 0 15.201-3.079 20.688-8.565s8.57-12.932 8.57-20.692c0-7.76-3.083-15.199-8.57-20.685s-12.928-8.572-20.688-8.572h-643.657c-7.76 0-15.201 3.087-20.688 8.572s-8.569 12.924-8.569 20.685c0 7.76 3.082 15.206 8.569 20.692s12.928 8.565 20.688 8.565h29.257zM270.657 799.087c-7.76 0-15.201-3.082-20.688-8.569s-8.569-12.929-8.569-20.688v-175.543c0-7.759 3.082-15.201 8.569-20.688s12.928-8.569 20.688-8.569h292.571c7.76 0 15.201 3.083 20.688 8.569s8.569 12.929 8.569 20.688v175.543c0 7.76-3.082 15.201-8.569 20.688s-12.928 8.569-20.688 8.569h-292.571z" />
<glyph unicode="&#xe91a;" glyph-name="home" d="M524.344 816.834l301.838-301.839v-456.812c0-9.64-7.815-17.455-17.455-17.455h-157.091v192c0 48.198-39.075 87.273-87.273 87.273h-104.727c-48.199 0-87.273-39.075-87.273-87.273v-192h-157.091c-9.64 0-17.455 7.815-17.455 17.455v456.812l301.838 301.839c6.819 6.817 17.869 6.817 24.688 0zM896 445.175l45.135-45.13c13.633-13.633 35.733-13.633 49.366 0s13.633 35.733 0 49.366l-416.791 416.792c-34.081 34.082-89.339 34.082-123.421 0l-416.791-416.792c-13.633-13.633-13.633-35.733 0-49.366s35.736-13.633 49.369 0l45.134 45.13v-386.993c0-48.198 39.074-87.273 87.273-87.273h593.455c48.198 0 87.273 39.075 87.273 87.273v386.993zM581.818 40.727h-139.636v192c0 9.64 7.815 17.455 17.455 17.455h104.727c9.64 0 17.455-7.815 17.455-17.455v-192z" />
<glyph unicode="&#xe91b;" glyph-name="launch" d="M387.025 653.561c134.079 172.25 343.487 283.156 578.793 283.166 9.258 0 18.139-3.677 24.683-10.224 6.549-6.547 10.226-15.426 10.226-24.685 0-235.317-110.904-444.742-283.159-578.835 2.56-16.151 3.887-32.694 3.887-49.529 0-173.517-140.665-314.182-314.182-314.182-19.28 0-34.909 15.63-34.909 34.909v192.303c-0.431 0.312-0.855 0.633-1.273 0.963-44.312 35.137-84.464 75.287-119.599 119.603-0.342 0.428-0.673 0.866-0.993 1.313h-192.316c-19.28 0-34.909 15.63-34.909 34.909 0 173.518 140.664 314.182 314.182 314.182 16.849 0 33.407-1.329 49.571-3.894zM341.244 587.608c-1.26 0.019-2.524 0.029-3.789 0.029-123.106 0-224.95-91.033-241.889-209.455h158.108c18.323 75.008 48.179 145.478 87.57 209.426zM316.208 338.106c25.968-31.195 54.744-59.969 85.939-85.937 94.293 19.414 181.295 58.861 256.373 113.725 156.165 114.111 260.496 294.694 271.434 500.061-205.354-10.947-385.922-115.282-500.024-271.441-54.865-75.087-94.308-162.102-113.722-256.408zM442.182 189.626v-158.059c118.421 16.938 209.455 118.779 209.455 241.887 0 1.252-0.009 2.499-0.028 3.742-63.949-39.391-134.419-69.25-209.427-87.571zM651.636 622.545c-19.279 0-34.909-15.629-34.909-34.909s15.63-34.909 34.909-34.909c19.279 0 34.909 15.629 34.909 34.909s-15.63 34.909-34.909 34.909zM546.909 587.636c0 57.839 46.89 104.727 104.727 104.727s104.727-46.888 104.727-104.727c0-57.839-46.89-104.727-104.727-104.727s-104.727 46.888-104.727 104.727zM205.408 252.867c11.528-15.453 8.346-37.325-7.107-48.854-42.737-31.884-70.3-82.725-70.3-140.013 57.289 0 108.131 27.564 140.013 70.302 11.528 15.453 33.401 18.632 48.855 7.107 15.454-11.529 18.636-33.401 7.107-48.854-44.492-59.643-115.715-98.374-195.975-98.374-12.826 0-25.444 0.991-37.775 2.909-15.019 2.332-26.802 14.113-29.136 29.133-1.916 12.335-2.907 24.948-2.907 37.776 0 80.258 38.73 151.482 98.371 195.975 15.454 11.529 37.327 8.346 48.855-7.107z" />
<glyph unicode="&#xe91c;" glyph-name="learn-more" d="M512 447.999l-381.952 152.576 23.552-562.175h-102.4l24.576 584.191-75.776 30.208 512 204.8 512-204.8-512-204.8zM512 703.999c-28.16 0-51.2-11.264-51.2-25.6s23.040-25.6 51.2-25.6c28.16 0 51.2 11.264 51.2 25.6s-23.040 25.6-51.2 25.6zM512 396.799l285.184 114.176c36.352-48.128 61.44-105.984 69.632-168.96-15.36 2.048-31.232 3.584-47.616 3.584-130.56 0-244.736-70.144-307.2-174.591-31.706 53.209-76.685 97.274-130.536 127.878s-114.725 46.701-176.664 46.713c-16.384 0-32.256-1.536-47.616-3.584 8.192 62.976 33.28 120.832 69.632 168.96l285.184-114.176z" />
<glyph unicode="&#xe91d;" glyph-name="line-right" d="M530.745 877.255c24.993 24.994 65.516 24.994 90.51 0l383.997-384c24.994-24.993 24.994-65.516 0-90.51l-383.997-383.997c-24.993-24.994-65.516-24.994-90.51 0s-24.993 65.514 0 90.507l274.745 274.745h-698.824c-35.346 0-64 28.654-64 64s28.654 64 64 64h698.824l-274.745 274.745c-24.993 24.993-24.993 65.516 0 90.51z" />
<glyph unicode="&#xe91e;" glyph-name="mapker" d="M503.816 939.521c-160.736 0-292.463-131.334-292.463-291.629 0-62.108 19.838-119.832 53.409-167.272l203.361-351.568c28.48-37.208 47.412-30.138 71.095 1.966l224.309 381.714c4.522 8.2 8.081 16.929 11.178 25.846 14.234 34.687 21.553 71.82 21.545 109.314 0.012 160.295-131.678 291.629-292.434 291.629zM503.816 802.879c86.569 0 155.398-68.675 155.398-154.986s-68.829-154.955-155.398-154.955c-86.556 0-155.418 68.635-155.418 154.955 0 86.311 68.862 154.986 155.418 154.986zM689.73 458.736l-0.471-1.237c0.147 0.373 0.266 0.758 0.414 1.13l0.057 0.106zM639.939 218.423l-13.595-16.81c18.383-2.224 36.176-4.829 52.838-7.983l-53.862-15.954 71.889-19.12 53.588 16.896c32.911-11.039 78.483-24.535 93.585-39.879h-107.446l10.674-31.224h111.497c-0.336-17.596-31.793-31.891-61.833-43.471l-76.194 16.478-71.795-25.727 76.677-17.498c-44.765-12.19-119.931-19.603-182.157-23.011l-2.613 35.783h-74.77l-2.625-35.783c-62.226 3.408-137.38 10.809-182.157 22.999l76.687 17.51-71.791 25.727-76.205-16.478c-29.609 8.995-61.489 25.874-61.823 43.471h111.506l10.676 31.224h-107.446c15.099 15.344 60.673 28.84 93.585 39.879l53.586-16.896 71.89 19.12-53.861 15.954c17.394 3.215 34.888 5.861 52.455 7.934l-13.399 16.839c-145.342-15.11-266.139-47.284-297.812-98.099-50.518-80.982 135.846-162.447 427.928-163.713 4.346-0.217 8.63-0.061 12.681 0 291.914 1.335 478.11 82.772 427.631 163.713-31.691 50.835-152.556 83.018-297.988 98.12z" />
<glyph unicode="&#xe91f;" glyph-name="mark" d="M34.353 925.647c21.423 21.423 56.157 21.423 77.58 0l400.067-400.067 400.069 400.067c21.424 21.423 56.152 21.423 77.575 0s21.424-56.157 0-77.58l-400.065-400.067 400.065-400.069c21.424-21.424 21.424-56.152 0-77.575s-56.152-21.424-77.575 0l-400.069 400.065-400.067-400.065c-21.423-21.424-56.157-21.424-77.58 0s-21.423 56.152 0 77.575l400.067 400.069-400.067 400.067c-21.423 21.423-21.423 56.157 0 77.58z" />
<glyph unicode="&#xe920;" glyph-name="mirror" d="M735.232 345.6c4.096 33.792 7.168 67.584 7.168 102.4s-3.072 68.608-7.168 102.4h173.056c8.192-32.768 13.312-67.072 13.312-102.4s-5.12-69.632-13.312-102.4zM644.608 60.928c30.72 56.832 54.272 118.272 70.656 182.272h151.040c-49.603-85.417-128.302-150.118-221.696-182.272zM631.808 345.6h-239.616c-5.12 33.792-8.192 67.584-8.192 102.4s3.072 69.12 8.192 102.4h239.616c4.608-33.28 8.192-67.584 8.192-102.4s-3.584-68.608-8.192-102.4zM512 40.448c-42.496 61.44-76.8 129.536-97.792 202.752h195.584c-20.992-73.216-55.296-141.312-97.792-202.752zM307.2 652.8h-149.504c49.094 85.647 127.734 150.452 221.184 182.272-30.72-56.832-53.76-118.272-71.68-182.272zM157.696 243.2h149.504c17.92-64 40.96-125.44 71.68-182.272-93.255 32.169-171.784 96.886-221.184 182.272zM115.712 345.6c-8.192 32.768-13.312 67.072-13.312 102.4s5.12 69.632 13.312 102.4h173.056c-4.096-33.792-7.168-67.584-7.168-102.4s3.072-68.608 7.168-102.4zM512 856.064c42.496-61.44 76.8-130.048 97.792-203.264h-195.584c20.992 73.216 55.296 141.824 97.792 203.264zM866.304 652.8h-151.040c-16.026 63.413-39.752 124.626-70.656 182.272 94.208-32.256 172.544-97.28 221.696-182.272zM512 960c-283.136 0-512-230.4-512-512 0-135.793 53.943-266.020 149.961-362.040 47.544-47.544 103.986-85.253 166.105-110.986 62.118-25.728 128.697-38.973 195.934-38.973 135.793 0 266.020 53.944 362.040 149.96 96.015 96.020 149.96 226.248 149.96 362.040 0 67.237-13.245 133.815-38.973 195.934-25.733 62.119-63.442 118.561-110.986 166.105s-103.987 85.257-166.108 110.988c-62.116 25.73-128.696 38.974-195.932 38.974z" />
<glyph unicode="&#xe921;" glyph-name="pencil" d="M906.602 842.604c-19.988 19.995-52.408 19.995-72.404 0l-52.668-52.664 72.41-72.408 52.661 52.664c19.995 19.995 19.995 52.413 0 72.408zM805.67 669.26l-72.41 72.408-552.995-553c-20.051-20.050-34.789-44.776-42.884-71.953l-18.386-61.72 61.722 18.384c27.176 8.096 51.906 22.835 71.956 42.885l552.998 552.995zM785.927 890.876c46.653 46.654 122.293 46.654 168.953 0 46.653-46.655 46.653-122.297 0-168.952l-653.936-653.93c-28.071-28.071-62.693-48.708-100.74-60.041l-122.192-36.4c-12.012-3.577-25.018-0.287-33.881 8.581-8.862 8.861-12.155 21.866-8.577 33.874l36.399 122.197c11.333 38.045 31.967 72.663 60.038 100.734l653.935 653.936z" />
<glyph unicode="&#xe922;" glyph-name="pool-solid" d="M234.888 32.194c71.85-52.28 156.414-84.319 244.868-92.774 88.455-8.453 177.558 6.985 258.011 44.708s149.309 96.346 199.382 169.751c50.070 73.405 79.524 158.906 85.287 247.575h-481.59l-305.958-369.261zM1022.436 463.515c-4.866 80.853-29.438 159.285-71.574 228.46s-100.557 126.99-170.17 168.402c-69.61 41.413-148.294 65.166-229.193 69.187s-161.55-11.811-234.927-46.116c-73.373-34.305-137.24-86.041-186.030-150.696s-81.020-140.264-93.88-220.235c-12.86-79.971-5.959-161.873 20.101-238.564s70.488-145.842 129.408-201.421l325.507 390.982h510.759z" />
<glyph unicode="&#xe923;" glyph-name="rectangle-group" d="M23.273 721.455c0 48.199 39.074 87.273 87.273 87.273h279.273c48.199 0 87.273-39.074 87.273-87.273v-174.545c0-48.199-39.074-87.273-87.273-87.273h-279.273c-48.199 0-87.273 39.074-87.273 87.273v174.545zM110.545 738.909c-9.64 0-17.455-7.815-17.455-17.455v-174.545c0-9.64 7.815-17.455 17.455-17.455h279.273c9.64 0 17.455 7.815 17.455 17.455v174.545c0 9.64-7.815 17.455-17.455 17.455h-279.273zM581.818 651.636c0 48.199 39.075 87.273 87.273 87.273h244.364c48.198 0 87.273-39.074 87.273-87.273v-384c0-48.198-39.075-87.273-87.273-87.273h-244.364c-48.198 0-87.273 39.075-87.273 87.273v384zM669.091 669.091c-9.64 0-17.455-7.815-17.455-17.455v-384c0-9.64 7.815-17.455 17.455-17.455h244.364c9.64 0 17.455 7.815 17.455 17.455v384c0 9.64-7.815 17.455-17.455 17.455h-244.364zM93.091 302.545c0 48.198 39.074 87.273 87.273 87.273h244.364c48.198 0 87.273-39.075 87.273-87.273v-104.727c0-48.198-39.075-87.273-87.273-87.273h-244.364c-48.199 0-87.273 39.075-87.273 87.273v104.727zM180.364 320c-9.64 0-17.455-7.815-17.455-17.455v-104.727c0-9.64 7.815-17.455 17.455-17.455h244.364c9.64 0 17.455 7.815 17.455 17.455v104.727c0 9.64-7.815 17.455-17.455 17.455h-244.364z" />
<glyph unicode="&#xe924;" glyph-name="seamless" d="M709.818 843.636h-49.455v49.455c0 27.2-22.253 49.455-49.455 49.455s-49.455-22.255-49.455-49.455v-49.455h-98.909v49.455c0 27.2-22.256 49.455-49.455 49.455s-49.455-22.255-49.455-49.455v-49.455h-49.455c-109.295 0-197.818-88.524-197.818-197.818v-494.545c0-109.296 88.524-197.818 197.818-197.818h395.636c109.296 0 197.818 88.522 197.818 197.818v494.545c0 109.295-88.522 197.818-197.818 197.818zM512 151.273c-68.247 0-123.636 54.4-123.636 121.658 0 50.444 18.793 66.765 104.844 165.674 9.891 11.373 27.695 11.373 37.090 0 85.558-98.416 104.846-115.724 104.846-165.674 0.493-67.258-54.896-121.658-123.143-121.658zM660.364 546.909h-296.727c-27.2 0-49.455 22.253-49.455 49.455 0 27.199 22.255 49.455 49.455 49.455h296.727c27.201 0 49.455-22.256 49.455-49.455 0-27.201-22.253-49.455-49.455-49.455z" />
<glyph unicode="&#xe925;" glyph-name="security" d="M497.393 955.505c4.449 2.946 9.483 4.495 14.607 4.495s10.158-1.549 14.607-4.495l412.276-273.085c4.508-2.984 8.254-7.297 10.86-12.501 2.606-5.202 3.98-11.111 3.982-17.129v-49.156c0.002-150.604-42.325-297.109-120.571-417.338-78.248-120.23-188.155-207.637-313.085-248.989-5.275-1.743-10.864-1.743-16.139 0-124.92 41.372-234.817 128.785-313.061 249.009-78.244 120.226-120.578 266.72-120.595 417.318v49.156c0.002 6.018 1.375 11.927 3.982 17.129 2.606 5.204 6.353 9.517 10.86 12.501l412.276 273.085zM486.792 228.758l254.317 368.596-45.939 42.602-216.859-314.117-153.602 148.354-37.693-52.433 199.776-193.002z" />
<glyph unicode="&#xe926;" glyph-name="setting" d="M340.548 850.033c8.817 52.903 54.589 91.677 108.221 91.677h126.487c53.633 0 99.405-38.774 108.221-91.677l10.397-62.384c0.041-0.095 0.153-0.316 0.415-0.663 0.57-0.753 1.687-1.849 3.461-2.831 4.221-2.337 8.393-4.75 12.514-7.238 1.73-1.044 3.231-1.464 4.165-1.582 0.427-0.053 0.674-0.040 0.776-0.029l59.259 22.2c50.22 18.815 106.686-1.437 133.508-47.884l63.239-109.541c26.814-46.447 16.121-105.474-25.285-139.561l-48.911-40.265c-0.059-0.081-0.19-0.287-0.358-0.683-0.366-0.858-0.746-2.351-0.709-4.346 0.044-2.406 0.066-4.816 0.066-7.232 0-2.414-0.022-4.825-0.066-7.231-0.037-1.995 0.344-3.488 0.709-4.346 0.168-0.396 0.3-0.602 0.358-0.683l48.911-40.265c41.406-34.087 52.1-93.114 25.285-139.561l-63.239-109.543c-26.821-46.446-83.288-66.699-133.508-47.879l-59.258 22.199c-0.102 0.007-0.348 0.022-0.776-0.029-0.933-0.117-2.436-0.541-4.165-1.58-4.122-2.494-8.294-4.908-12.515-7.241-1.774-0.98-2.891-2.077-3.461-2.831-0.263-0.344-0.374-0.571-0.415-0.666l-10.397-62.384c-8.817-52.897-54.589-91.677-108.221-91.677h-126.487c-53.633 0-99.404 38.78-108.221 91.677l-10.397 62.384c-0.040 0.095-0.153 0.322-0.415 0.666-0.571 0.753-1.688 1.851-3.462 2.831-4.221 2.333-8.392 4.747-12.513 7.241-1.73 1.039-3.232 1.463-4.165 1.58-0.428 0.051-0.674 0.037-0.776 0.029l-59.258-22.199c-50.224-18.82-106.689 1.434-133.505 47.879l-63.244 109.542c-26.816 46.447-16.122 105.473 25.284 139.561l48.911 40.265c0.061 0.081 0.195 0.287 0.363 0.683 0.362 0.858 0.747 2.351 0.709 4.346-0.045 2.406-0.067 4.816-0.067 7.232s0.022 4.825 0.067 7.231c0.037 1.995-0.347 3.488-0.709 4.346-0.167 0.396-0.302 0.602-0.363 0.683l-48.911 40.265c-41.406 34.087-52.1 93.114-25.284 139.561l63.244 109.541c26.816 46.447 83.281 66.699 133.505 47.884l59.257-22.2c0.102-0.012 0.349-0.026 0.777 0.029 0.933 0.117 2.436 0.537 4.165 1.581 4.121 2.489 8.293 4.902 12.514 7.239 1.774 0.982 2.891 2.077 3.462 2.831 0.262 0.347 0.374 0.568 0.415 0.663l10.397 62.384zM575.256 831.996h-126.487l-10.411-62.466c-6.216-37.297-30.539-65.637-58.95-81.363-3.013-1.668-5.992-3.391-8.935-5.168-27.852-16.818-64.612-23.744-100.066-10.462l-59.336 22.23-63.243-109.541 48.974-40.317c29.155-24.002 41.575-59.206 40.973-91.713-0.031-1.728-0.048-3.461-0.048-5.199s0.016-3.471 0.048-5.2c0.603-32.507-11.818-67.711-40.973-91.713l-48.974-40.317 63.243-109.542 59.337 22.228c35.453 13.285 72.214 6.36 100.066-10.459 2.943-1.777 5.922-3.496 8.934-5.164 28.411-15.733 52.735-44.069 58.95-81.364l10.411-62.471h126.487l10.411 62.471c6.216 37.296 30.539 65.631 58.95 81.364 3.013 1.668 5.993 3.387 8.935 5.164 27.852 16.82 64.613 23.745 100.067 10.459l59.333-22.228 63.247 109.543-48.976 40.317c-29.155 24.002-41.574 59.206-40.975 91.712 0.037 1.728 0.051 3.462 0.051 5.2s-0.015 3.471-0.051 5.2c-0.6 32.507 11.82 67.711 40.975 91.713l48.976 40.317-63.247 109.541-59.333-22.23c-35.455-13.282-72.216-6.357-100.067 10.461-2.943 1.777-5.922 3.501-8.935 5.168-28.411 15.726-52.734 44.066-58.95 81.363l-10.411 62.466zM512.001 539.428c-50.494 0-91.429-40.934-91.429-91.429s40.934-91.429 91.429-91.429c50.495 0 91.429 40.934 91.429 91.429s-40.934 91.429-91.429 91.429zM310.859 447.999c0 111.088 90.055 201.143 201.143 201.143s201.143-90.055 201.143-201.143c0-111.088-90.054-201.143-201.143-201.143s-201.143 90.055-201.143 201.143z" />
<glyph unicode="&#xe927;" glyph-name="share" horiz-adv-x="931" d="M779.636 866.909c-38.558 0-69.818-31.259-69.818-69.818 0-12.368 3.184-23.886 8.755-33.888 11.971-21.507 34.858-35.93 61.063-35.93 38.558 0 69.818 31.259 69.818 69.818s-31.26 69.818-69.818 69.818zM640 797.091c0 77.119 62.515 139.636 139.636 139.636s139.636-62.518 139.636-139.636c0-77.119-62.515-139.636-139.636-139.636-39.875 0-75.813 16.722-101.232 43.462l-391.968-217.761c2.92-11.245 4.472-23.031 4.472-35.156s-1.552-23.91-4.472-35.156l391.968-217.763c25.418 26.74 61.356 43.464 101.232 43.464 77.121 0 139.636-62.515 139.636-139.636s-62.515-139.636-139.636-139.636c-77.121 0-139.636 62.515-139.636 139.636 0 12.125 1.55 23.91 4.473 35.156l-391.97 217.763c-25.416-26.74-61.357-43.464-101.231-43.464-77.119 0-139.636 62.515-139.636 139.636 0 77.119 62.518 139.636 139.636 139.636 39.874 0 75.815-16.722 101.231-43.463l391.97 217.761c-2.923 11.248-4.473 23.034-4.473 35.157zM151.273 517.818c-38.56 0-69.818-31.26-69.818-69.818s31.259-69.818 69.818-69.818c26.206 0 49.090 14.424 61.064 35.928 5.569 10.003 8.754 21.523 8.754 33.89s-3.185 23.887-8.754 33.89c-11.974 21.506-34.858 35.928-61.064 35.928zM779.636 168.727c-26.205 0-49.091-14.424-61.063-35.928-5.571-10.003-8.755-21.523-8.755-33.89 0-38.558 31.26-69.818 69.818-69.818s69.818 31.26 69.818 69.818c0 38.558-31.26 69.818-69.818 69.818z" />
<glyph unicode="&#xe928;" glyph-name="sparkles" d="M791.273 936.727c16.021 0 29.98-10.902 33.866-26.442l12.051-48.196c10.943-43.776 45.121-77.956 88.897-88.9l48.198-12.049c15.542-3.885 26.442-17.848 26.442-33.867s-10.901-29.982-26.442-33.867l-48.198-12.049c-43.776-10.944-77.954-45.124-88.897-88.9l-12.051-48.196c-3.887-15.541-17.846-26.442-33.866-26.442s-29.98 10.902-33.866 26.442l-12.051 48.196c-10.943 43.776-45.121 77.956-88.897 88.9l-48.198 12.049c-15.542 3.885-26.442 17.848-26.442 33.867s10.901 29.982 26.442 33.867l48.198 12.049c43.776 10.944 77.954 45.124 88.897 88.9l12.051 48.196c3.887 15.54 17.846 26.442 33.866 26.442zM791.273 792.615c-16.133-26.761-38.582-49.211-65.341-65.342 26.759-16.132 49.208-38.581 65.341-65.342 16.133 26.761 38.582 49.211 65.341 65.342-26.759 16.132-49.208 38.581-65.341 65.342zM372.364 797.091c15.586 0 29.284-10.332 33.566-25.319l37.851-132.477c16.567-57.985 61.894-103.311 119.881-119.878l132.473-37.853c14.988-4.282 25.321-17.976 25.321-33.564s-10.333-29.282-25.321-33.564l-132.478-37.851c-57.982-16.57-103.309-61.896-119.876-119.882l-37.851-132.473c-4.282-14.988-17.98-25.321-33.566-25.321s-29.284 10.333-33.566 25.321l-37.851 132.478c-16.567 57.982-61.893 103.308-119.878 119.878l-132.477 37.851c-14.987 4.282-25.319 17.976-25.319 33.564s10.332 29.282 25.319 33.564l132.477 37.853c57.985 16.567 103.311 61.893 119.878 119.878l37.851 132.477c4.282 14.987 17.98 25.319 33.566 25.319zM372.364 635.111l-4.285-14.996c-23.195-81.179-86.65-144.634-167.83-167.828l-14.996-4.287 14.996-4.287c81.179-23.194 144.635-86.649 167.83-167.829l4.285-14.997 4.285 14.997c23.195 81.18 86.65 144.635 167.831 167.829l14.997 4.287-14.997 4.287c-81.181 23.194-144.637 86.648-167.831 167.828l-4.285 14.996zM721.455 308.364c15.025 0 28.365-9.616 33.117-23.869l18.353-55.054c6.949-20.848 23.305-37.204 44.153-44.153l55.054-18.353c14.252-4.752 23.869-18.092 23.869-33.117s-9.616-28.365-23.869-33.117l-55.054-18.353c-20.848-6.949-37.204-23.305-44.153-44.153l-18.353-55.054c-4.752-14.252-18.092-23.869-33.117-23.869s-28.365 9.616-33.117 23.869l-18.353 55.054c-6.949 20.848-23.305 37.204-44.153 44.153l-55.054 18.353c-14.252 4.752-23.869 18.092-23.869 33.117s9.616 28.365 23.869 33.117l55.054 18.353c20.848 6.949 37.204 23.305 44.153 44.153l18.353 55.054c4.752 14.252 18.092 23.869 33.117 23.869zM721.455 176.389c-10.924-17.11-25.46-31.646-42.57-42.57 17.11-10.924 31.646-25.46 42.57-42.57 10.924 17.11 25.46 31.646 42.57 42.57-17.11 10.924-31.646 25.46-42.57 42.57z" />
<glyph unicode="&#xe929;" glyph-name="square-2-stack" d="M26.947 771.368c0 89.295 72.389 161.684 161.684 161.684h444.632c89.298 0 161.684-72.389 161.684-161.684v-80.842h40.421c89.298 0 161.684-72.389 161.684-161.684v-404.211c0-89.298-72.386-161.684-161.684-161.684h-404.211c-89.295 0-161.684 72.386-161.684 161.684v40.421h-80.842c-89.295 0-161.684 72.386-161.684 161.684v444.632zM269.474 245.895v282.947c0 89.295 72.389 161.684 161.684 161.684h282.947v80.842c0 44.648-36.196 80.842-80.842 80.842h-444.632c-44.648 0-80.842-36.194-80.842-80.842v-444.632c0-44.646 36.194-80.842 80.842-80.842h80.842zM431.158 609.684c-44.648 0-80.842-36.194-80.842-80.842v-404.211c0-44.646 36.194-80.842 80.842-80.842h404.211c44.646 0 80.842 36.196 80.842 80.842v404.211c0 44.648-36.196 80.842-80.842 80.842h-404.211z" />
<glyph unicode="&#xe92a;" glyph-name="squares-22" d="M0 789.333c0 94.256 76.41 170.667 170.667 170.667h128c94.256 0 170.667-76.41 170.667-170.667v-128c0-94.256-76.41-170.667-170.667-170.667h-128c-94.256 0-170.667 76.41-170.667 170.667v128zM170.667 874.667c-47.128 0-85.333-38.205-85.333-85.333v-128c0-47.128 38.205-85.333 85.333-85.333h128c47.128 0 85.333 38.205 85.333 85.333v128c0 47.128-38.205 85.333-85.333 85.333h-128zM554.667 789.333c0 94.256 76.407 170.667 170.667 170.667h128c94.259 0 170.667-76.41 170.667-170.667v-128c0-94.256-76.407-170.667-170.667-170.667h-128c-94.259 0-170.667 76.41-170.667 170.667v128zM725.333 874.667c-47.127 0-85.333-38.205-85.333-85.333v-128c0-47.128 38.207-85.333 85.333-85.333h128c47.127 0 85.333 38.205 85.333 85.333v128c0 47.128-38.207 85.333-85.333 85.333h-128zM0 234.667c0 94.259 76.41 170.667 170.667 170.667h128c94.256 0 170.667-76.407 170.667-170.667v-128c0-94.259-76.41-170.667-170.667-170.667h-128c-94.256 0-170.667 76.407-170.667 170.667v128zM170.667 320c-47.128 0-85.333-38.207-85.333-85.333v-128c0-47.127 38.205-85.333 85.333-85.333h128c47.128 0 85.333 38.207 85.333 85.333v128c0 47.127-38.205 85.333-85.333 85.333h-128zM554.667 234.667c0 94.259 76.407 170.667 170.667 170.667h128c94.259 0 170.667-76.407 170.667-170.667v-128c0-94.259-76.407-170.667-170.667-170.667h-128c-94.259 0-170.667 76.407-170.667 170.667v128zM725.333 320c-47.127 0-85.333-38.207-85.333-85.333v-128c0-47.127 38.207-85.333 85.333-85.333h128c47.127 0 85.333 38.207 85.333 85.333v128c0 47.127-38.207 85.333-85.333 85.333h-128z" />
<glyph unicode="&#xe92b;" glyph-name="stack-3d" d="M495.448 932.555c10.333 5.564 22.77 5.564 33.103 0l453.818-244.364c11.306-6.089 18.358-17.894 18.358-30.736s-7.052-24.648-18.358-30.736l-137.411-73.991 137.411-73.989c11.306-6.093 18.358-17.897 18.358-30.739s-7.052-24.646-18.358-30.739l-137.411-73.989 137.411-73.989c11.306-6.093 18.358-17.897 18.358-30.739s-7.052-24.646-18.358-30.739l-453.818-244.364c-10.333-5.562-22.77-5.562-33.103 0l-453.817 244.364c-11.307 6.093-18.359 17.897-18.359 30.739s7.051 24.646 18.359 30.739l137.412 73.989-137.412 73.989c-11.307 6.093-18.359 17.897-18.359 30.739s7.051 24.646 18.359 30.739l137.412 73.989-137.412 73.991c-11.307 6.089-18.359 17.894-18.359 30.736s7.051 24.648 18.359 30.736l453.817 244.364zM252.675 513.079l-120.861-65.079 380.186-204.716 380.188 204.716-120.865 65.079-242.772-130.727c-10.333-5.562-22.77-5.562-33.103 0l-242.773 130.727zM252.675 303.625l-120.861-65.080 380.186-204.716 380.188 204.716-120.865 65.080-242.772-130.728c-10.333-5.562-22.77-5.562-33.103 0l-242.773 130.728zM131.814 657.455l380.186-204.716 380.188 204.716-380.188 204.715-380.186-204.715z" />
<glyph unicode="&#xe92c;" glyph-name="star" d="M449.962 898.013c22.955 55.191 101.139 55.191 124.092 0l106.598-256.293 276.69-22.182c59.587-4.776 83.743-79.134 38.349-118.021l-210.811-180.581 64.41-269.998c13.865-58.148-49.382-104.1-100.398-72.945l-236.882 144.691-236.886-144.691c-51.012-31.155-114.264 14.797-100.394 72.945l64.406 269.998-210.808 180.581c-45.396 38.886-21.236 113.244 38.347 118.021l276.689 22.182 106.598 256.293zM512.010 847.208l-99.987-240.395c-9.677-23.267-31.558-39.165-56.677-41.179l-259.527-20.806 197.732-169.379c19.138-16.394 27.496-42.117 21.649-66.627l-60.41-253.256 222.191 135.716c21.505 13.133 48.551 13.133 70.055 0l222.193-135.716-60.411 253.256c-5.847 24.509 2.514 50.232 21.647 66.627l197.734 169.379-259.528 20.806c-25.119 2.014-47.002 17.911-56.678 41.179l-99.983 240.395z" />
<glyph unicode="&#xe92d;" glyph-name="stop-circle" d="M512 870.4c-233.285 0-422.4-189.115-422.4-422.4 0-233.283 189.115-422.4 422.4-422.4 233.283 0 422.4 189.117 422.4 422.4 0 233.285-189.117 422.4-422.4 422.4zM12.8 448c0 275.701 223.499 499.2 499.2 499.2s499.2-223.499 499.2-499.2c0-275.702-223.498-499.2-499.2-499.2s-499.2 223.498-499.2 499.2zM320 572.8c0 37.113 30.087 67.2 67.2 67.2h249.6c37.115 0 67.2-30.087 67.2-67.2v-249.6c0-37.115-30.085-67.2-67.2-67.2h-249.6c-37.113 0-67.2 30.085-67.2 67.2v249.6zM396.8 563.2v-230.4h230.4v230.4h-230.4z" />
<glyph unicode="&#xe92e;" glyph-name="telegram" d="M1016.188 786.6c2.126 12.906 0.751 26.147-3.979 38.342s-12.639 22.899-22.913 30.996c-10.274 8.097-22.533 13.291-35.494 15.041-12.966 1.75-26.156-0.009-38.21-5.093l-833.83-351.086c-58.124-24.478-61.099-108.544 0-133.903 60.5-25.229 121.881-48.294 184.027-69.144 56.954-18.822 119.077-36.23 168.862-41.155 13.605-16.286 30.72-31.939 48.177-46.324 26.674-21.943 58.759-44.52 91.917-66.17 66.414-43.398 140.093-84.894 189.733-111.909 59.343-32.183 130.389 4.876 141.019 69.583l110.69 670.82zM175.24 448.388l737.476 310.467-103.278-626.105c-48.713 26.478-118.882 66.121-181.394 106.984-28.813 18.5-56.627 38.502-83.334 59.928-7.139 5.832-14.068 11.917-20.773 18.237l193.146 193.1c9.148 9.143 14.292 21.546 14.297 34.481s-5.13 25.343-14.273 34.492c-9.143 9.15-21.548 14.293-34.484 14.297-12.932 0.004-25.342-5.129-34.489-14.273l-211.481-211.483c-35.791 4.584-85.626 17.847-140.337 35.891-40.731 13.568-81.137 28.235-121.076 43.983z" />
<glyph unicode="&#xe92f;" glyph-name="top-right-on-square" d="M704 947.2h268.8c10.184 0 19.953-4.046 27.151-11.247 7.204-7.201 11.249-16.969 11.249-27.153v-268.8c0-21.208-17.193-38.4-38.4-38.4s-38.4 17.192-38.4 38.4v176.094l-625.647-625.646c-14.996-14.996-39.31-14.996-54.306 0s-14.996 39.306 0 54.303l625.645 625.649h-176.092c-21.207 0-38.4 17.192-38.4 38.4s17.193 38.4 38.4 38.4zM166.4 716.8c-42.416 0-76.8-34.384-76.8-76.8v-537.6c0-42.414 34.384-76.8 76.8-76.8h537.6c42.414 0 76.8 34.386 76.8 76.8v422.4c0 21.208 17.193 38.4 38.4 38.4s38.4-17.192 38.4-38.4v-422.4c0-84.833-68.767-153.6-153.6-153.6h-537.6c-84.831 0-153.6 68.767-153.6 153.6v537.6c0 84.831 68.769 153.6 153.6 153.6h422.4c21.207 0 38.4-17.192 38.4-38.4s-17.193-38.4-38.4-38.4h-422.4z" />
<glyph unicode="&#xe930;" glyph-name="twitter" d="M798.558 745.012c-19.025 27.379-69.901 65.859-152.307 49.26-48.074-9.647-76.8-33.415-95.070-64.781-19.454-33.415-28.885-78.848-28.885-131.719 0-14.293-5.678-28.002-15.785-38.109s-23.816-15.786-38.11-15.786c-127.515 0-248.886 37.888-351.016 140.342-7.711-41.568-10.748-83.869-9.054-126.114 2.856-58.53 16.815-117.221 49.96-167.505 32.606-49.42 86.232-94.691 175.912-123.148 8.788-2.786 16.713-7.782 23.020-14.508s10.781-14.956 12.998-23.908c2.217-8.947 2.101-18.313-0.336-27.206s-7.115-17.009-13.585-23.574c-28.726-29.464-61.283-54.935-96.795-75.722 57.128-5.928 112.209-6.36 163.301-1.725 103.478 9.378 185.881 38.966 237.404 80.842 108.49 87.956 166.535 219.134 155.756 438.917-1.832 36.109 33.037 75.075 49.853 104.664-25.384-4.743-50.823-3.88-67.261 19.779zM85.91 853.071c9.758 1.134 19.64-0.42 28.579-4.496s16.593-10.515 22.136-18.625c79.549-116.359 175.050-164.756 281.061-175.751 5.174 45.325 17.408 90.112 40.421 129.563 33.738 57.883 88.601 100.46 166.964 116.197 108.328 21.773 190.787-17.462 238.592-65.482l96.579 18.055c10.111 1.894 20.545 0.857 30.084-2.988 9.534-3.845 17.769-10.338 23.735-18.712 5.972-8.375 9.415-18.281 9.933-28.55 0.523-10.27-1.908-20.473-7.001-29.407l-92.699-162.87c8.461-235.035-56.859-399.089-196.123-512.106-73.836-59.931-179.577-93.939-295.61-104.448-116.952-10.563-249.155 2.21-380.551 40.583-11.227 3.271-21.084 10.111-28.083 19.478-7 9.372-10.762 20.76-10.719 32.455s3.888 23.056 10.955 32.375c7.068 9.318 16.974 16.082 28.224 19.278 66.075 18.809 116.412 35.032 161.846 63.434-64.62 34.277-112.209 79.117-145.893 130.21-46.78 71.032-64.135 150.257-67.584 221.667s6.845 137.593 17.731 185.29c6.198 27.217 13.42 54.488 23.39 80.573 3.517 9.195 9.485 17.251 17.257 23.294s16.996 9.841 26.774 10.983z" />
<glyph unicode="&#xe931;" glyph-name="wallet" d="M197.818 634.182c0 19.28 15.629 34.909 34.909 34.909h186.182c19.28 0 34.909-15.629 34.909-34.909s-15.629-34.909-34.909-34.909h-186.182c-19.28 0-34.909 15.629-34.909 34.909zM928.517 552.695c0 0 0 0 0 0 9.211-0.589 13.391-6.599 13.968-10.577l0.023-2.438c0.009-2.187 0.019-5.039 0.028-7.996 0.009-5.902 0.009-12.074 0.009-13.866 0-19.28 15.63-34.909 34.909-34.909s34.909 15.629 34.909 34.909c0 0.153 0 0.397 0 0.722 0 4.575 0.014 25.011-0.158 27.753l-0.023 0.324c-3.067 42.677-38.856 73.287-79.472 75.769l-0.079 0.005c-2.644 0.155-5.562 0.155-8.662 0.153zM923.969 622.545c-0.261 0-0.521 0-0.787 0zM616.727 448c0 98.803 85.42 174.545 185.344 174.545h121.111zM616.727 448c0-98.797 85.462-174.545 185.251-174.545zM977.455 413.091c19.279 0 34.909-15.63 34.909-34.909 0-0.154 0-0.396 0-0.721 0-4.575 0.009-25.014-0.163-27.755l-0.014-0.256c-2.988-42.785-38.921-73.36-79.476-75.837l-0.135-0.009c-2.662-0.149-5.544-0.149-8.676-0.149-0.251 0-0.507 0-0.763 0h-121.158zM977.455 413.091c-19.279 0-34.909-15.63-34.909-34.909zM942.545 378.182c0-1.792 0-7.964-0.009-13.866zM942.536 364.316c-0.009-2.956-0.019-5.809-0.028-7.997zM942.508 356.319l-0.023-2.476zM942.485 353.843c-0.549-3.882-4.678-9.937-13.95-10.538zM791.273 401.455c25.707 0 46.545 20.839 46.545 46.545s-20.838 46.545-46.545 46.545c-25.707 0-46.545-20.839-46.545-46.545s20.838-46.545 46.545-46.545zM758.179 778.947c-47.83 6.434-110.885 6.508-199.633 6.508-19.279 0-34.909 15.629-34.909 34.909s15.63 34.909 34.909 34.909h2.625c85.537 0.001 153.288 0.001 206.317-7.13 54.556-7.338 98.723-22.797 133.539-57.63 47.942-47.884 59.532-113.867 63.134-201.441 0.791-19.263-14.182-35.522-33.448-36.314-19.261-0.792-35.519 14.181-36.315 33.445-3.565 86.692-15.341 127.577-42.71 154.911-19.684 19.7-46.68 31.536-93.51 37.834zM407.273 820.476c0.062-19.279-15.517-34.959-34.797-35.021-72.944-0.234-125.501-1.56-165.701-8.386-39.181-6.653-63.064-17.994-80.982-35.929-19.7-19.683-31.533-46.677-37.831-93.505-6.434-47.832-6.508-110.886-6.508-199.635s0.074-151.803 6.508-199.633c6.298-46.829 18.109-73.802 37.808-93.482 21.928-21.965 52.918-34.146 110.351-39.759 19.188-1.871 33.224-18.949 31.35-38.135-1.875-19.191-18.95-33.224-38.138-31.348-63.576 6.209-114.064 20.955-152.923 59.862-34.842 34.821-50.304 78.988-57.643 133.553-7.132 53.029-7.131 120.781-7.13 206.316v5.253c-0.001 85.533-0.001 153.289 7.13 206.315 7.339 54.565 22.801 98.735 57.644 133.554 31.559 31.583 70.834 47.282 118.676 55.406 46.829 7.952 105.166 9.14 177.165 9.371 19.28 0.062 34.959-15.517 35.021-34.797zM930.714 343.245c19.265-0.796 34.239-17.054 33.448-36.315-3.603-87.575-15.192-153.558-63.134-201.444-34.816-34.83-78.983-50.292-133.539-57.628-53.029-7.131-120.781-7.131-206.313-7.131h-142.266c-19.28 0-34.909 15.63-34.909 34.909s15.629 34.909 34.909 34.909h139.636c88.748 0 151.803 0.074 199.633 6.507 46.829 6.298 73.802 18.111 93.482 37.809 27.369 27.336 39.173 68.245 42.738 154.936 0.796 19.265 17.054 34.239 36.315 33.448z" />
<glyph unicode="&#xe932;" glyph-name="arrow-small-right" horiz-adv-x="1161" d="M612.329 945.004c19.995 19.995 52.413 19.995 72.406 0l460.8-460.8c19.995-19.995 19.995-52.413 0-72.408l-460.8-460.798c-19.993-19.995-52.411-19.995-72.406 0s-19.995 52.408 0 72.404l373.393 373.398h-900.39c-28.277 0-51.2 22.923-51.2 51.2s22.923 51.2 51.2 51.2h900.39l-373.393 373.396c-19.995 19.995-19.995 52.413 0 72.408z" />
<glyph unicode="&#xe933;" glyph-name="rectangle-group-full" horiz-adv-x="1365" d="M0 832c0 42.415 34.385 76.8 76.8 76.8h409.6c42.415 0 76.8-34.385 76.8-76.8v-256c0-42.415-34.385-76.8-76.8-76.8h-409.6c-42.415 0-76.8 34.385-76.8 76.8v256zM819.2 729.6c0 42.415 34.386 76.8 76.8 76.8h358.4c42.414 0 76.8-34.385 76.8-76.8v-563.2c0-42.414-34.386-76.8-76.8-76.8h-358.4c-42.414 0-76.8 34.386-76.8 76.8v563.2zM102.4 217.6c0 42.414 34.385 76.8 76.8 76.8h358.4c42.415 0 76.8-34.386 76.8-76.8v-153.6c0-42.414-34.385-76.8-76.8-76.8h-358.4c-42.415 0-76.8 34.386-76.8 76.8v153.6z" />
<glyph unicode="&#xe934;" glyph-name="magnifying-glass" horiz-adv-x="979" d="M404.406 859.826c-186.464 0-337.623-151.159-337.623-337.623s151.159-337.625 337.623-337.625c93.241 0 177.6 37.754 238.738 98.887 61.133 61.137 98.887 145.497 98.887 238.738 0 186.464-151.16 337.623-337.625 337.623zM0 522.203c0 223.347 181.059 404.406 404.406 404.406s404.407-181.059 404.407-404.406c0-99.638-36.072-190.908-95.811-261.377l234.434-234.434c13.040-13.040 13.040-34.179 0-47.22s-34.179-13.040-47.22 0l-234.434 234.434c-70.469-59.739-161.739-95.811-261.377-95.811-223.347 0-404.406 181.061-404.406 404.407z" />
<glyph unicode="&#xe935;" glyph-name="beaker" horiz-adv-x="1126" d="M486.376 867.964c25.387 1.616 50.994 2.436 76.798 2.436s51.415-0.82 76.8-2.436v-257.047c0-40.737 16.184-79.806 44.989-108.612l202.46-202.463-14.592-3.645c-97.71-24.428-202.199-12.595-292.485 32.548-80.773 40.387-171.2 58.225-260.664 51.855l121.704 121.705c28.806 28.806 44.988 67.874 44.988 108.612v257.047zM716.774 860.889c19.113-0.024 35.681 14.204 38.108 33.652 2.621 21.045-12.308 40.232-33.357 42.857-13.138 1.638-26.337 3.075-39.593 4.308-39.107 3.636-78.72 5.494-118.758 5.494-40.033 0-79.647-1.858-118.753-5.494-13.259-1.233-26.459-2.67-39.597-4.308-21.045-2.624-35.977-21.812-33.353-42.857 2.425-19.448 18.996-33.676 38.105-33.652v-249.972c0-20.369-8.092-39.903-22.494-54.306l-322.212-322.213c-83.002-83-46.233-229.146 75.311-249.897 137.515-23.475 278.843-35.702 422.994-35.702 144.154 0 285.481 12.227 422.999 35.702 121.544 20.751 158.31 166.897 75.31 249.897l-322.212 322.213c-14.403 14.403-22.497 33.937-22.497 54.306v249.972zM950.758 236.513l56.417-56.417c43.146-43.146 20.383-110.618-33.93-119.89-133.263-22.753-270.264-34.606-410.071-34.606-139.802 0-276.807 11.853-410.070 34.606-54.309 9.272-77.072 76.744-33.929 119.89l105.232 105.231 29.11 7.276c97.714 24.428 202.2 12.595 292.484-32.548 106.486-53.243 229.745-67.292 345.457-38.364l59.3 14.822z" />
</font>
</defs>
</svg>
