<svg width="52" height="52" viewBox="0 0 52 52" fill="none" xmlns="http://www.w3.org/2000/svg">
<path d="M34.5 9H32.375V6.875C32.375 5.70625 31.4188 4.75 30.25 4.75C29.0812 4.75 28.125 5.70625 28.125 6.875V9H23.875V6.875C23.875 5.70625 22.9187 4.75 21.75 4.75C20.5813 4.75 19.625 5.70625 19.625 6.875V9H17.5C12.8038 9 9 12.8038 9 17.5V38.75C9 43.4463 12.8038 47.25 17.5 47.25H34.5C39.1963 47.25 43 43.4463 43 38.75V17.5C43 12.8038 39.1963 9 34.5 9ZM26 38.75C23.0675 38.75 20.6875 36.4125 20.6875 33.5225C20.6875 31.355 21.495 30.6537 25.1925 26.4037C25.6175 25.915 26.3825 25.915 26.7862 26.4037C30.4625 30.6325 31.2913 31.3762 31.2913 33.5225C31.3125 36.4125 28.9325 38.75 26 38.75ZM32.375 21.75H19.625C18.4563 21.75 17.5 20.7938 17.5 19.625C17.5 18.4563 18.4563 17.5 19.625 17.5H32.375C33.5438 17.5 34.5 18.4563 34.5 19.625C34.5 20.7938 33.5438 21.75 32.375 21.75Z" fill="white"/>
</svg>
