<svg width="52" height="52" viewBox="0 0 52 52" fill="none" xmlns="http://www.w3.org/2000/svg">
<g clip-path="url(#clip0_10_3581)">
<path fill-rule="evenodd" clip-rule="evenodd" d="M24.939 0.723867C25.1606 0.577163 25.4113 0.5 25.6665 0.5C25.9217 0.5 26.1724 0.577163 26.394 0.723867L46.9273 14.3248C47.1518 14.4734 47.3384 14.6882 47.4682 14.9474C47.598 15.2065 47.6664 15.5008 47.6665 15.8005V18.2487C47.6666 25.7495 45.5585 33.0461 41.6615 39.0341C37.7644 45.0221 32.2905 49.3754 26.0684 51.4349C25.8057 51.5217 25.5273 51.5217 25.2646 51.4349C19.043 49.3744 13.5696 45.0208 9.67271 39.0331C5.77579 33.0453 3.66738 25.7492 3.6665 18.2487L3.6665 15.8005C3.66659 15.5008 3.735 15.2065 3.86481 14.9474C3.99463 14.6882 4.18122 14.4734 4.4057 14.3248L24.939 0.723867ZM24.411 36.9193L37.0772 18.5615L34.7892 16.4397L23.9886 32.0842L16.3385 24.6955L14.4612 27.3069L24.411 36.9193Z" fill="white"/>
</g>
<defs>
<clipPath id="clip0_10_3581">
<rect width="51" height="51" fill="white" transform="translate(0.166504 0.5)"/>
</clipPath>
</defs>
</svg>
