<svg width="51" height="50" viewBox="0 0 51 50" fill="none" xmlns="http://www.w3.org/2000/svg">
<path d="M45.1243 18.7499C45.1246 21.4239 44.3334 24.0382 42.8505 26.2634C41.3675 28.4886 39.2592 30.2251 36.791 31.254V31.2499C36.791 26.5533 34.9253 22.0492 31.6044 18.7282C28.2834 15.4072 23.7792 13.5416 19.0827 13.5416H19.0785C20.2844 10.6535 22.4531 8.2721 25.216 6.80209C27.979 5.33207 31.1657 4.86415 34.2347 5.47783C37.3036 6.09152 40.0653 7.74895 42.0505 10.1684C44.0357 12.5879 45.1218 15.6202 45.1243 18.7499ZM14.916 6.24988C12.7059 6.24988 10.5863 7.12786 9.02346 8.69066C7.46066 10.2535 6.58268 12.3731 6.58268 14.5832V17.7082H10.7493V14.5832C10.7493 13.4781 11.1883 12.4183 11.9697 11.6369C12.7511 10.8555 13.8109 10.4166 14.916 10.4166H18.041V6.24988H14.916ZM39.916 32.2915V35.4165C39.916 36.5216 39.477 37.5814 38.6956 38.3628C37.9142 39.1442 36.8544 39.5832 35.7493 39.5832H32.6243V43.7499H35.7493C37.9595 43.7499 40.0791 42.8719 41.6419 41.3091C43.2047 39.7463 44.0827 37.6267 44.0827 35.4165V32.2915H39.916ZM19.0827 44.7915C22.6742 44.7915 26.1185 43.3648 28.6581 40.8253C31.1976 38.2857 32.6243 34.8414 32.6243 31.2499C32.6243 27.6584 31.1976 24.214 28.6581 21.6745C26.1185 19.1349 22.6742 17.7082 19.0827 17.7082C15.4912 17.7082 12.0468 19.1349 9.50728 21.6745C6.96772 24.214 5.54102 27.6584 5.54102 31.2499C5.54102 34.8414 6.96772 38.2857 9.50728 40.8253C12.0468 43.3648 15.4912 44.7915 19.0827 44.7915ZM19.0827 26.0415L24.291 31.2499L19.0827 36.4582L13.8743 31.2499L19.0827 26.0415Z" fill="white"/>
</svg>
